# xmcd
#
# Track frame offsets: 
#        150
#        13731
#        28586
#        39630
#        50066
#        59972
#        74642
#        86479
#
# Disc length: 1279 seconds
#
# Revision: 0
# Processed by: cddbd v1.5.2PL0 Copyright (c) Steve Scherf et al.
# Submitted via: ExactAudioCopyFreeDBPlugin 1.0
#
DISCID=7604fd08
DTITLE=Tom Dalton - Don't Pet The Dog?
DYEAR=1900
DGENRE=Country
TTITLE0=Navaho Rug
TTITLE1=I Don't Even Know You
TTITLE2=Don't Pet The Dog
TTITLE3=Your Oldest Boy
TTITLE4=Viagra
TTITLE5=My Time To Go
TTITLE6=Let's Talk Dirty In Hawaiian
TTITLE7=That's The Way The World Goes Round
EXTD=
EXTT0=
EXTT1=
EXTT2=
EXTT3=
EXTT4=
EXTT5=
EXTT6=
EXTT7=
PLAYORDER=
